<?xml version="1.0" encoding="utf-8"?>
<!-- Generator: Adobe Illustrator 21.1.0, SVG Export Plug-In . SVG Version: 6.00 Build 0)  -->
<svg version="1.1" id="Слой_1" xmlns="http://www.w3.org/2000/svg" xmlns:xlink="http://www.w3.org/1999/xlink" x="0px" y="0px"
	 viewBox="0 0 52 52" style="enable-background:new 0 0 52 52;" xml:space="preserve">
<style type="text/css">
	.st0{fill-rule:evenodd;clip-rule:evenodd;fill:none;stroke:#000000;stroke-width:4;stroke-miterlimit:10;}
</style>
<g>
	<path d="M26,4c12.1,0,22,9.9,22,22c0,12.1-9.9,22-22,22C13.9,48,4,38.1,4,26C4,13.9,13.9,4,26,4 M26,2L26,2C12.8,2,2,12.8,2,26v0
		c0,13.2,10.8,24,24,24h0c13.2,0,24-10.8,24-24v0C50,12.8,39.2,2,26,2L26,2z"/>
</g>
<g>
	<path class="st0" d="M21.4,36.8h-0.8c-0.9,0-1.6-0.7-1.6-1.6V16.8c0-0.9,0.7-1.6,1.6-1.6h0.8c0.9,0,1.6,0.7,1.6,1.6v18.4
		C23,36.1,22.3,36.8,21.4,36.8z"/>
	<path class="st0" d="M31.4,36.8h-0.8c-0.9,0-1.6-0.7-1.6-1.6V16.8c0-0.9,0.7-1.6,1.6-1.6h0.8c0.9,0,1.6,0.7,1.6,1.6v18.4
		C33,36.1,32.3,36.8,31.4,36.8z"/>
</g>
</svg>
