<?xml version="1.0" encoding="utf-8"?>
<!-- Generator: Adobe Illustrator 21.1.0, SVG Export Plug-In . SVG Version: 6.00 Build 0)  -->
<svg version="1.1" id="Слой_1" xmlns="http://www.w3.org/2000/svg" xmlns:xlink="http://www.w3.org/1999/xlink" x="0px" y="0px"
	 viewBox="0 0 52 52" style="enable-background:new 0 0 52 52;" xml:space="preserve">
<style type="text/css">
	.st0{fill-rule:evenodd;clip-rule:evenodd;stroke:#000000;stroke-width:4;stroke-miterlimit:10;}
	
		.st1{fill-rule:evenodd;clip-rule:evenodd;fill:none;stroke:#000000;stroke-width:2;stroke-linecap:round;stroke-linejoin:round;stroke-miterlimit:10;}
	
		.st2{fill-rule:evenodd;clip-rule:evenodd;stroke:#000000;stroke-width:2;stroke-linecap:round;stroke-linejoin:round;stroke-miterlimit:10;}
</style>
<g>
	<path d="M26,4c12.1,0,22,9.9,22,22c0,12.1-9.9,22-22,22C13.9,48,4,38.1,4,26C4,13.9,13.9,4,26,4 M26,2L26,2C12.8,2,2,12.8,2,26v0
		c0,13.2,10.8,24,24,24h0c13.2,0,24-10.8,24-24v0C50,12.8,39.2,2,26,2L26,2z"/>
</g>
<path class="st0" d="M16.3,31h-5.5c-0.4,0-0.8-0.4-0.8-0.8v-7.4c0-0.4,0.4-0.8,0.8-0.8h5.5c0.4,0,0.8,0.4,0.8,0.8v7.4
	C17.1,30.6,16.7,31,16.3,31z"/>
<path class="st0" d="M11.7,27.3l11.4,11.8c0.7,0.7,1.9,0.2,1.9-0.8V14.7c0-1-1.2-1.4-1.9-0.8L11.7,25.7
	C11.3,26.2,11.3,26.8,11.7,27.3z"/>
<path class="st1" d="M29.5,42.2c7.4-1.1,13.1-7.7,13.1-15.7c0-8-5.7-14.6-13.1-15.7"/>
<path class="st1" d="M29.4,14.4c5.5,1.1,9.7,6.1,9.7,12.1c0,6-4.2,11-9.7,12.1"/>
<path class="st2" d="M34.6,26.5c0-3.6-2.4-6.6-5.6-7.6v15.1C32.2,33.1,34.6,30.1,34.6,26.5z"/>
</svg>
